<svg id="visual" viewBox="0 0 900 600" width="900" height="600" xmlns="http://www.w3.org/2000/svg" xmlns:xlink="http://www.w3.org/1999/xlink" version="1.1"><path d="M0 0L75 31.2C150 62.3 300 124.7 450 153.8C600 183 750 179 825 177L900 175L900 0L825 0C750 0 600 0 450 0C300 0 150 0 75 0L0 0Z" fill="#dceee8"></path><path d="M0 19L75 72C150 125 300 231 450 298C600 365 750 393 825 407L900 421L900 173L825 175C750 177 600 181 450 152.2C300 123.3 150 61.7 75 30.8L0 0Z" fill="#cfe8df"></path><path d="M0 109L75 156C150 203 300 297 450 351C600 405 750 419 825 426L900 433L900 419L825 405C750 391 600 363 450 296C300 229 150 123 75 70L0 17Z" fill="#c1e1d7"></path><path d="M0 361L75 383C150 405 300 449 450 473C600 497 750 501 825 503L900 505L900 431L825 424C750 417 600 403 450 349C300 295 150 201 75 154L0 107Z" fill="#b4dbce"></path><path d="M0 469L75 481C150 493 300 517 450 529C600 541 750 541 825 541L900 541L900 503L825 501C750 499 600 495 450 471C300 447 150 403 75 381L0 359Z" fill="#a7d4c6"></path><path d="M0 511L75 525C150 539 300 567 450 574C600 581 750 567 825 560L900 553L900 539L825 539C750 539 600 539 450 527C300 515 150 491 75 479L0 467Z" fill="#99cebd"></path><path d="M0 601L75 601C150 601 300 601 450 601C600 601 750 601 825 601L900 601L900 551L825 558C750 565 600 579 450 572C300 565 150 537 75 523L0 509Z" fill="#8cc7b5"></path></svg>